<svg xmlns="http://www.w3.org/2000/svg" width="1200" height="675" viewBox="0 0 1200 675" role="img" aria-label="Ilustração do projeto TramPRO">
  
  <defs>
    <pattern id="gridS" width="24" height="24" patternUnits="userSpaceOnUse">
      <path d="M 24 0 L 0 0 0 24" fill="none" stroke="#5b8bc9" stroke-opacity="0.06" stroke-width="1"/>
    </pattern>
    <pattern id="gridL" width="120" height="120" patternUnits="userSpaceOnUse">
      <path d="M 120 0 L 0 0 0 120" fill="none" stroke="#5b8bc9" stroke-opacity="0.12" stroke-width="1"/>
    </pattern>
    <linearGradient id="copperGrad" x1="0" y1="0" x2="1" y2="1">
      <stop offset="0" stop-color="#f0b27e"/>
      <stop offset="1" stop-color="#e2985a"/>
    </linearGradient>
  </defs>
  <rect width="1200" height="675" fill="#0a101b"/>
  <rect width="1200" height="675" fill="url(#gridS)"/>
  <rect width="1200" height="675" fill="url(#gridL)"/>
  <g stroke="#e2985a" stroke-opacity="0.55" stroke-width="1.5">
    <line x1="27" y1="36" x2="45" y2="36"/>
    <line x1="36" y1="27" x2="36" y2="45"/>
  </g><g stroke="#e2985a" stroke-opacity="0.55" stroke-width="1.5">
    <line x1="1155" y1="36" x2="1173" y2="36"/>
    <line x1="1164" y1="27" x2="1164" y2="45"/>
  </g><g stroke="#e2985a" stroke-opacity="0.55" stroke-width="1.5">
    <line x1="27" y1="639" x2="45" y2="639"/>
    <line x1="36" y1="630" x2="36" y2="648"/>
  </g><g stroke="#e2985a" stroke-opacity="0.55" stroke-width="1.5">
    <line x1="1155" y1="639" x2="1173" y2="639"/>
    <line x1="1164" y1="630" x2="1164" y2="648"/>
  </g>
  
  <defs><marker id="seta" markerWidth="10" markerHeight="10" refX="8" refY="4" orient="auto"><path d="M0,0 L8,4 L0,8" fill="none" stroke="#e2985a" stroke-width="1.8"/></marker></defs>
  <text x="300" y="168" font-family="'IBM Plex Mono', ui-monospace, 'Cascadia Code', monospace" font-size="15" fill="#5c7396" letter-spacing="3">FILA REDIS · PROCESSOS</text>
  <rect x="300" y="200" width="56" height="66" rx="8" fill="#0f1826" stroke="#e2985a"/>
         <line x1="312" y1="218" x2="344" y2="218" stroke="#5c7396" stroke-width="3"/>
         <line x1="312" y1="233" x2="336" y2="233" stroke="#5c7396" stroke-width="3" opacity="0.6"/>
         <line x1="312" y1="248" x2="340" y2="248" stroke="#5c7396" stroke-width="3" opacity="0.35"/><rect x="374" y="200" width="56" height="66" rx="8" fill="#0f1826" stroke="#1d2b44"/>
         <line x1="386" y1="218" x2="418" y2="218" stroke="#5c7396" stroke-width="3"/>
         <line x1="386" y1="233" x2="410" y2="233" stroke="#5c7396" stroke-width="3" opacity="0.6"/>
         <line x1="386" y1="248" x2="414" y2="248" stroke="#5c7396" stroke-width="3" opacity="0.35"/><rect x="448" y="200" width="56" height="66" rx="8" fill="#0f1826" stroke="#1d2b44"/>
         <line x1="460" y1="218" x2="492" y2="218" stroke="#5c7396" stroke-width="3"/>
         <line x1="460" y1="233" x2="484" y2="233" stroke="#5c7396" stroke-width="3" opacity="0.6"/>
         <line x1="460" y1="248" x2="488" y2="248" stroke="#5c7396" stroke-width="3" opacity="0.35"/><rect x="522" y="200" width="56" height="66" rx="8" fill="#0f1826" stroke="#1d2b44"/>
         <line x1="534" y1="218" x2="566" y2="218" stroke="#5c7396" stroke-width="3"/>
         <line x1="534" y1="233" x2="558" y2="233" stroke="#5c7396" stroke-width="3" opacity="0.6"/>
         <line x1="534" y1="248" x2="562" y2="248" stroke="#5c7396" stroke-width="3" opacity="0.35"/>
      <line x1="612" y1="233" x2="700" y2="233" stroke="#e2985a" stroke-width="2.5" stroke-dasharray="8 8" marker-end="url(#seta)"/><rect x="300" y="320" width="56" height="66" rx="8" fill="#0f1826" stroke="#e2985a"/>
         <line x1="312" y1="338" x2="344" y2="338" stroke="#5c7396" stroke-width="3"/>
         <line x1="312" y1="353" x2="336" y2="353" stroke="#5c7396" stroke-width="3" opacity="0.6"/>
         <line x1="312" y1="368" x2="340" y2="368" stroke="#5c7396" stroke-width="3" opacity="0.35"/><rect x="374" y="320" width="56" height="66" rx="8" fill="#0f1826" stroke="#1d2b44"/>
         <line x1="386" y1="338" x2="418" y2="338" stroke="#5c7396" stroke-width="3"/>
         <line x1="386" y1="353" x2="410" y2="353" stroke="#5c7396" stroke-width="3" opacity="0.6"/>
         <line x1="386" y1="368" x2="414" y2="368" stroke="#5c7396" stroke-width="3" opacity="0.35"/><rect x="448" y="320" width="56" height="66" rx="8" fill="#0f1826" stroke="#1d2b44"/>
         <line x1="460" y1="338" x2="492" y2="338" stroke="#5c7396" stroke-width="3"/>
         <line x1="460" y1="353" x2="484" y2="353" stroke="#5c7396" stroke-width="3" opacity="0.6"/>
         <line x1="460" y1="368" x2="488" y2="368" stroke="#5c7396" stroke-width="3" opacity="0.35"/><rect x="522" y="320" width="56" height="66" rx="8" fill="#0f1826" stroke="#1d2b44"/>
         <line x1="534" y1="338" x2="566" y2="338" stroke="#5c7396" stroke-width="3"/>
         <line x1="534" y1="353" x2="558" y2="353" stroke="#5c7396" stroke-width="3" opacity="0.6"/>
         <line x1="534" y1="368" x2="562" y2="368" stroke="#5c7396" stroke-width="3" opacity="0.35"/>
      <line x1="612" y1="353" x2="700" y2="353" stroke="#e2985a" stroke-width="2.5" stroke-dasharray="8 8" marker-end="url(#seta)"/><rect x="300" y="440" width="56" height="66" rx="8" fill="#0f1826" stroke="#e2985a"/>
         <line x1="312" y1="458" x2="344" y2="458" stroke="#5c7396" stroke-width="3"/>
         <line x1="312" y1="473" x2="336" y2="473" stroke="#5c7396" stroke-width="3" opacity="0.6"/>
         <line x1="312" y1="488" x2="340" y2="488" stroke="#5c7396" stroke-width="3" opacity="0.35"/><rect x="374" y="440" width="56" height="66" rx="8" fill="#0f1826" stroke="#1d2b44"/>
         <line x1="386" y1="458" x2="418" y2="458" stroke="#5c7396" stroke-width="3"/>
         <line x1="386" y1="473" x2="410" y2="473" stroke="#5c7396" stroke-width="3" opacity="0.6"/>
         <line x1="386" y1="488" x2="414" y2="488" stroke="#5c7396" stroke-width="3" opacity="0.35"/><rect x="448" y="440" width="56" height="66" rx="8" fill="#0f1826" stroke="#1d2b44"/>
         <line x1="460" y1="458" x2="492" y2="458" stroke="#5c7396" stroke-width="3"/>
         <line x1="460" y1="473" x2="484" y2="473" stroke="#5c7396" stroke-width="3" opacity="0.6"/>
         <line x1="460" y1="488" x2="488" y2="488" stroke="#5c7396" stroke-width="3" opacity="0.35"/><rect x="522" y="440" width="56" height="66" rx="8" fill="#0f1826" stroke="#1d2b44"/>
         <line x1="534" y1="458" x2="566" y2="458" stroke="#5c7396" stroke-width="3"/>
         <line x1="534" y1="473" x2="558" y2="473" stroke="#5c7396" stroke-width="3" opacity="0.6"/>
         <line x1="534" y1="488" x2="562" y2="488" stroke="#5c7396" stroke-width="3" opacity="0.35"/>
      <line x1="612" y1="473" x2="700" y2="473" stroke="#e2985a" stroke-width="2.5" stroke-dasharray="8 8" marker-end="url(#seta)"/>
  <g transform="translate(790,180)">
    <rect width="230" height="340" rx="14" fill="#0f1826" stroke="#2e4266"/>
    <text x="24" y="42" font-family="'IBM Plex Mono', ui-monospace, 'Cascadia Code', monospace" font-size="15" fill="#8ca2c0" letter-spacing="2">WORKERS</text>
    
      <g transform="translate(24,68)">
        <circle cx="16" cy="16" r="10" fill="none" stroke="#f0b27e" stroke-width="3"/>
        <circle cx="16" cy="16" r="4" fill="#f0b27e"/>
        <rect x="42" y="8" width="120" height="7" rx="3.5" fill="#5b8bc9" opacity="0.75"/>
        <rect x="42" y="21" width="84" height="7" rx="3.5" fill="#5b8bc9" opacity="0.45"/>
      </g>
      <g transform="translate(24,134)">
        <circle cx="16" cy="16" r="10" fill="none" stroke="#f0b27e" stroke-width="3"/>
        <circle cx="16" cy="16" r="4" fill="#f0b27e"/>
        <rect x="42" y="8" width="120" height="7" rx="3.5" fill="#5b8bc9" opacity="0.75"/>
        <rect x="42" y="21" width="84" height="7" rx="3.5" fill="#5b8bc9" opacity="0.45"/>
      </g>
      <g transform="translate(24,200)">
        <circle cx="16" cy="16" r="10" fill="none" stroke="#f0b27e" stroke-width="3"/>
        <circle cx="16" cy="16" r="4" fill="#f0b27e"/>
        <rect x="42" y="8" width="120" height="7" rx="3.5" fill="#5b8bc9" opacity="0.75"/>
        <rect x="42" y="21" width="84" height="7" rx="3.5" fill="#5b8bc9" opacity="0.45"/>
      </g>
      <g transform="translate(24,266)">
        <circle cx="16" cy="16" r="10" fill="none" stroke="#5c7396" stroke-width="3"/>
        <circle cx="16" cy="16" r="4" fill="#5c7396"/>
        <rect x="42" y="8" width="120" height="7" rx="3.5" fill="#5b8bc9" opacity="0.25"/>
        <rect x="42" y="21" width="84" height="7" rx="3.5" fill="#5b8bc9" opacity="0.15"/>
      </g>
  </g>
  <g font-family="'IBM Plex Mono', ui-monospace, 'Cascadia Code', monospace">
    <text x="64" y="601" font-size="30" font-weight="600" fill="#e8eef7" letter-spacing="2">TramPRO</text>
    <text x="64" y="631" font-size="15" fill="#5c7396" letter-spacing="3">FIG.08 · R&D TÉCNICO</text>
  </g>
  <g font-family="'IBM Plex Mono', ui-monospace, 'Cascadia Code', monospace" font-size="14" fill="#e2985a" opacity="0.85">
    <text x="1136" y="631" text-anchor="end" letter-spacing="3">BOB.DEV</text>
  </g>
</svg>